<?xml version="1.0" encoding="utf-8"?>
<!-- Generator: Adobe Illustrator 22.1.0, SVG Export Plug-In . SVG Version: 6.00 Build 0)  -->
<svg version="1.1" id="Layer_1" xmlns="http://www.w3.org/2000/svg" xmlns:xlink="http://www.w3.org/1999/xlink" x="0px" y="0px"
	 viewBox="0 0 91.5 157.4" style="enable-background:new 0 0 91.5 157.4;" xml:space="preserve">
<style type="text/css">
	.st0{fill:#FFBA00;}
	.st1{fill:none;}
	.st2{font-family:'ArialMT';}
	.st3{font-size:8px;}
	.st4{fill:#AB6609;}
	.st5{fill:#C6772B;}
	.st6{fill:#6CB38A;}
	.st7{fill:#FFFFFF;}
	.st8{fill:#353A42;}
</style>
<title>pobarvanka</title>
<g id="g7">
	<path id="p7" class="st0" d="M41.6,141.5v10.8c0,0-13.2-1.3-13.4,3s17.3,0.7,17.3,0.7s17.5,3.7,17.3-0.7s-13.3-3-13.3-3v-10.7
		c-1.3,0.2-2.5,0.2-3.8,0.2S43,141.7,41.6,141.5z"/>
	<rect x="37" y="143.8" class="st1" width="10.8" height="10.2"/>
	<text transform="matrix(1 0 0 1 37 152.2695)" class="st2 st3">7</text>
</g>
<g id="g6">
	<path id="p6" class="st4" d="M17.3,99.3c-3.6,3.3-6.6,7.2-8.9,11.6c-5.9,11.5-6.9,24,3.9,18.2c0,0,0.9,9.3,8.5,4.6
		c0.8-0.6,1.5-1.4,1.9-2.3C15,122.6,12.8,110.2,17.3,99.3z"/>
	<rect x="4" y="114.8" class="st1" width="11.2" height="15.8"/>
	<text transform="matrix(1 0 0 1 4 123.2695)" class="st2 st3">6</text>
</g>
<g id="g5">
	<path id="p5" class="st4" d="M74.2,99.3c4.5,10.9,2.4,23.4-5.4,32.2c0.4,0.9,1.1,1.7,1.9,2.3c7.6,4.7,8.5-4.6,8.5-4.6
		C90,135,89,122.4,83.1,111C80.8,106.5,77.8,102.6,74.2,99.3z"/>
	<rect x="78.2" y="118" class="st1" width="11" height="13"/>
	<text transform="matrix(1 0 0 1 73.25 126.5195)" class="st2 st3">5</text>
</g>
<g id="g4">
	<path id="p4" class="st5" d="M74.2,99.3c-0.5-1.3-1.2-2.5-1.8-3.7l0,0c0.8,1.4,1.5,2.9,2.1,4.5c-1,0.6-2,1.2-3,1.8s-2.3,1-3.5,1.6
		c-0.3,0.6-0.6,1.2-0.9,1.8c-2.1,3.7-7.3,8.5-21,8.5s-19.2-4.8-21.2-8.5c-0.5-0.9-0.9-1.9-1.3-2.8c-2-0.8-4.1-1.7-6.2-2.6
		c0.6-1.4,1.2-2.8,2-4.1l0,0c-0.7,1.2-1.3,2.4-1.9,3.7c-6.5,15.7,1,33.7,16.7,40.2c3.7,1.5,7.7,2.3,11.7,2.3c1.3,0,2.5-0.1,3.8-0.2
		c16.9-2.1,28.8-17.5,26.7-34.4C75.9,104.5,75.2,101.8,74.2,99.3z"/>
	<rect x="39.5" y="120.2" class="st1" width="11.2" height="16.8"/>
	<text transform="matrix(1 0 0 1 39.5 128.7695)" class="st2 st3">4</text>
</g>
<g id="g3">
	<path id="p3" class="st6" d="M22.4,97.7c-0.5-7,3.8-11.7,1.8-14c-4-4.7-11.5-5.8-10.4-10.4s19-1,22.8-2.5s5.2-9.3,9-9.5h0.2
		c3.8,0.2,5.2,8.1,9,9.5s21.8-2.1,22.8,2.5S71.3,79,67.3,83.6c-2,2.3,2.4,7,2,13.9c1-0.6,2-1.3,3-2l0,0C92.9,80.9,97.7,52.3,83,31.8
		c-8-11.2-20.6-18.2-34.3-19.1c1-2.2,2.4-4.2,3.6-6.3c0.4-0.7-0.1-1.9-1.1-1.6c-1.4,0.5-2.7,1.2-3.8,2.3c1-2.2,2.2-4.4,3.5-6.4
		c0.2-0.3,0-0.7-0.4-0.6c-5.4,1.6-7.9,7.1-8.7,12.7C16.6,14.9-2,37.1,0.2,62.3c1.2,13.3,8.1,25.5,19,33.3l0,0
		C20.2,96.3,21.3,97,22.4,97.7z M62.7,55.1c3.3,0,6.1,2.7,6.1,6c0,3.3-2.7,6.1-6,6.1c-3.3,0-6.1-2.7-6.1-6v-0.1
		C56.7,57.8,59.3,55.1,62.7,55.1z M28.7,55.1c3.3,0,6,2.7,6,6.1c0,3.3-2.7,6-6.1,6s-6-2.7-6-6.1l0,0C22.6,57.8,25.3,55.1,28.7,55.1
		L28.7,55.1z"/>
	<rect x="31" y="26.8" class="st1" width="22.5" height="16.2"/>
	<text transform="matrix(1 0 0 1 31 35.27)" class="st2 st3">1</text>
</g>
<g id="g2">
	<path id="p2" class="st0" d="M69.3,97.6c0.4-6.9-4-11.6-2-13.9c4-4.7,11.5-5.8,10.4-10.4s-19-1-22.8-2.5s-5.2-9.3-9-9.5h-0.2
		c-3.8,0.2-5.2,8.1-9,9.5s-21.8-2.1-22.9,2.5s6.4,5.8,10.4,10.4c2,2.3-2.3,7-1.8,14c0.1,1.6,0.4,3.1,1,4.6c0.4,1,0.8,1.9,1.3,2.8
		c2.1,3.7,7.6,8.5,21.3,8.5s18.9-4.8,21-8.5c0.3-0.6,0.6-1.2,0.9-1.8C68.7,101.5,69.2,99.5,69.3,97.6z M31.7,87.1
		c3.3,3.8,0.7,6-0.6,5C29.1,90.5,31.7,87.1,31.7,87.1z M59.6,87.1c0,0,2.6,3.4,0.6,5C58.9,93.1,56.3,90.9,59.6,87.1z"/>
	<rect x="41.8" y="93.5" class="st1" width="12.5" height="14.2"/>
	<text transform="matrix(1 0 0 1 41.75 102.0195)" class="st2 st3">2</text>
</g>
<g id="g1">
	<path id="p1" class="st5" d="M31.1,92.1c1.3,1,3.9-1.2,0.6-5C31.7,87.1,29.1,90.5,31.1,92.1z"/>
	<rect x="57.8" y="85" class="st1" width="9.5" height="10.2"/>
	<text transform="matrix(1 0 0 1 57.75 93.5195)" class="st2 st3">3</text>
</g>
<g id="g0">
	<path id="p0" class="st5" d="M60.2,92.1c2-1.6-0.6-5-0.6-5C56.3,90.9,58.9,93.1,60.2,92.1z"/>
	<rect x="27.5" y="82" class="st1" width="8.8" height="11.2"/>
	<text transform="matrix(1 0 0 1 27.5 90.5195)" class="st2 st3">8</text>
</g>
<g id="inactiveLayer">
	<path id="inactive" class="st7" d="M28.6,67.2c3.3,0,6-2.7,5.9-6c0-3.3-2.7-6-6.1-5.9c-3.3,0-5.9,2.7-5.9,5.9c0,3.3,2.6,6,5.9,6
		C28.6,67.2,28.6,67.2,28.6,67.2z M28.6,58.5c1.4,0,2.6,1.1,2.7,2.5c-0.5-0.5-1.2-0.7-1.9-0.7c-1.4,0-2.6,0.8-3.1,2.2
		c-0.2-0.4-0.4-0.9-0.4-1.3C25.9,59.7,27.1,58.5,28.6,58.5L28.6,58.5z"/>
	<path id="inactive-2" class="st8" d="M29.4,60.3c0.7,0,1.4,0.2,1.9,0.7c0-1.5-1.3-2.7-2.8-2.6c-1.5,0-2.7,1.3-2.6,2.8
		c0,0.5,0.1,0.9,0.4,1.3C26.8,61.2,28,60.3,29.4,60.3z"/>
	<path id="inactive-3" class="st7" d="M62.7,67.2c3.3,0,6-2.7,6-6c0-3.3-2.7-6-6-6c-3.3,0-6,2.7-6,6C56.6,64.5,59.3,67.2,62.7,67.2
		C62.6,67.2,62.6,67.2,62.7,67.2z M62.7,58.5c1.5,0,2.7,1.2,2.7,2.7l0,0c0,0.5-0.1,0.9-0.3,1.3c-0.5-1.3-1.7-2.2-3.1-2.2
		c-0.7,0-1.4,0.2-1.9,0.7C60.1,59.6,61.2,58.5,62.7,58.5z"/>
	<path id="inactive-4" class="st8" d="M65,62.5c0.2-0.4,0.4-0.9,0.3-1.3c-0.1-1.5-1.4-2.6-2.9-2.5c-1.3,0.1-2.3,1.1-2.5,2.3
		c0.5-0.5,1.2-0.7,1.9-0.7C63.3,60.3,64.5,61.2,65,62.5z"/>
</g>
</svg>
