<svg xmlns="http://www.w3.org/2000/svg" xmlns:xlink="http://www.w3.org/1999/xlink" viewBox="0 0 68.86 88.37">
  <defs>
    <linearGradient id="linear-gradient" x1="3.2" y1="70.23" x2="65.76" y2="70.23" gradientUnits="userSpaceOnUse">
      <stop offset="0"/>
      <stop offset="0.2" stop-color="#434f5b"/>
      <stop offset="0.4" stop-color="#191d22"/>
      <stop offset="0.7" stop-color="#e5e8ec"/>
      <stop offset="1" stop-color="#252b32"/>
    </linearGradient>
    <linearGradient id="linear-gradient-2" x1="3.27" y1="69.61" x2="65.69" y2="69.61" gradientUnits="userSpaceOnUse">
      <stop offset="0" stop-color="#2a3239"/>
      <stop offset="0.2" stop-color="#fff"/>
      <stop offset="0.4" stop-color="#93a1af"/>
      <stop offset="0.7" stop-color="#fff"/>
      <stop offset="1" stop-color="#a8b3bf"/>
    </linearGradient>
    <linearGradient id="linear-gradient-3" x1="4.31" y1="68.83" x2="64.65" y2="68.83" xlink:href="#linear-gradient"/>
    <linearGradient id="linear-gradient-4" x1="1.75" y1="53.13" x2="67.21" y2="53.13" gradientUnits="userSpaceOnUse">
      <stop offset="0" stop-color="#0d0f12"/>
      <stop offset="0.19" stop-color="#708395"/>
      <stop offset="0.4" stop-color="#414d58"/>
      <stop offset="0.48" stop-color="#838b92"/>
      <stop offset="0.55" stop-color="#b9bdc1"/>
      <stop offset="0.62" stop-color="#dfe1e3"/>
      <stop offset="0.67" stop-color="#f6f7f7"/>
      <stop offset="0.7" stop-color="#fff"/>
      <stop offset="0.73" stop-color="#f6f7f8"/>
      <stop offset="0.79" stop-color="#dfe1e4"/>
      <stop offset="0.85" stop-color="#b9bec4"/>
      <stop offset="0.93" stop-color="#848e98"/>
      <stop offset="1" stop-color="#4f5d6b"/>
    </linearGradient>
    <linearGradient id="linear-gradient-5" x1="1.75" y1="25.86" x2="67.21" y2="25.86" gradientUnits="userSpaceOnUse">
      <stop offset="0" stop-color="#030404"/>
      <stop offset="0.19" stop-color="#5f7081"/>
      <stop offset="0.4" stop-color="#333c45"/>
      <stop offset="0.47" stop-color="#6b7279"/>
      <stop offset="0.55" stop-color="#a0a5aa"/>
      <stop offset="0.61" stop-color="#c6cace"/>
      <stop offset="0.67" stop-color="#dde1e4"/>
      <stop offset="0.7" stop-color="#e6e9ec"/>
      <stop offset="0.73" stop-color="#dde1e4"/>
      <stop offset="0.79" stop-color="#c6cbcf"/>
      <stop offset="0.86" stop-color="#a0a6ad"/>
      <stop offset="0.94" stop-color="#6b757e"/>
      <stop offset="1" stop-color="#404c57"/>
    </linearGradient>
    <linearGradient id="linear-gradient-6" x1="0.1" y1="15.49" x2="68.86" y2="15.49" gradientUnits="userSpaceOnUse">
      <stop offset="0"/>
      <stop offset="0.2" stop-color="#78899b"/>
      <stop offset="0.4" stop-color="#46535f"/>
      <stop offset="0.7" stop-color="#fff"/>
      <stop offset="1" stop-color="#8494a4"/>
    </linearGradient>
    <linearGradient id="linear-gradient-7" x1="0.1" y1="23.13" x2="68.86" y2="23.13" xlink:href="#linear-gradient"/>
    <linearGradient id="linear-gradient-8" x1="1.14" y1="14.71" x2="67.83" y2="14.71" xlink:href="#linear-gradient-6"/>
    <linearGradient id="linear-gradient-9" x1="3.01" y1="15.67" x2="65.95" y2="15.67" xlink:href="#linear-gradient-2"/>
    <linearGradient id="linear-gradient-10" x1="-735.97" y1="-1204.92" x2="-669.28" y2="-1204.92" gradientTransform="translate(-668.14 -1194.7) rotate(180)" xlink:href="#linear-gradient-6"/>
    <linearGradient id="linear-gradient-11" x1="3.48" y1="15.48" x2="65.49" y2="15.48" xlink:href="#linear-gradient-6"/>
    <linearGradient id="linear-gradient-12" x1="-733.63" y1="-1208.36" x2="-671.62" y2="-1208.36" gradientTransform="translate(-668.14 -1198.33) rotate(180)" xlink:href="#linear-gradient-6"/>
    <linearGradient id="linear-gradient-13" x1="4.77" y1="15.36" x2="64.2" y2="15.36" xlink:href="#linear-gradient"/>
    <linearGradient id="linear-gradient-14" x1="4.8" y1="14.69" x2="64.16" y2="14.69" xlink:href="#linear-gradient-6"/>
    <linearGradient id="linear-gradient-15" x1="0.67" y1="14.89" x2="68.29" y2="14.89" xlink:href="#linear-gradient-2"/>
    <linearGradient id="linear-gradient-16" x1="5.21" y1="14.53" x2="63.75" y2="14.53" xlink:href="#linear-gradient-2"/>
    <linearGradient id="linear-gradient-17" x1="1.65" y1="60.09" x2="67.1" y2="60.09" xlink:href="#linear-gradient-5"/>
    <linearGradient id="linear-gradient-18" x1="53.97" y1="46.88" x2="54.48" y2="45.51" gradientUnits="userSpaceOnUse">
      <stop offset="0.13" stop-color="#333c45"/>
      <stop offset="1" stop-color="#7e8e9f"/>
    </linearGradient>
    <linearGradient id="linear-gradient-19" x1="53.84" y1="46.11" x2="53.41" y2="45.83" gradientUnits="userSpaceOnUse">
      <stop offset="0.14" stop-color="#fff"/>
      <stop offset="0.72" stop-color="#9ca9b6"/>
      <stop offset="1" stop-color="#3e4954"/>
    </linearGradient>
    <linearGradient id="linear-gradient-20" y1="55.14" x2="57.19" y2="55.14" gradientUnits="userSpaceOnUse">
      <stop offset="0" stop-color="#505e6d"/>
      <stop offset="0.2" stop-color="#dfe3e7"/>
      <stop offset="0.4" stop-color="#505e6d"/>
      <stop offset="0.8" stop-color="#fff"/>
    </linearGradient>
    <linearGradient id="linear-gradient-21" y1="58.46" x2="56.57" y2="58.46" gradientUnits="userSpaceOnUse">
      <stop offset="0.35" stop-color="#22282f"/>
      <stop offset="1" stop-color="#8091a1"/>
    </linearGradient>
    <linearGradient id="linear-gradient-22" x1="-0.1" y1="57.37" x2="57.09" y2="57.37" gradientUnits="userSpaceOnUse">
      <stop offset="0" stop-color="#52606f"/>
      <stop offset="0.35" stop-color="#22282f"/>
      <stop offset="1" stop-color="#8091a1"/>
    </linearGradient>
    <linearGradient id="linear-gradient-23" x1="-433.48" y1="-70.55" x2="-430.19" y2="-70.55" gradientTransform="translate(126.08 -386.38) rotate(-90)" xlink:href="#linear-gradient-4"/>
    <linearGradient id="linear-gradient-24" x1="70.76" y1="45.45" x2="73" y2="45.45" gradientTransform="matrix(1, 0, -0.05, 1, -13.7, 0)" gradientUnits="userSpaceOnUse">
      <stop offset="0" stop-color="#fff"/>
      <stop offset="0.51" stop-color="#aeb8c3"/>
      <stop offset="1" stop-color="#505e6c"/>
    </linearGradient>
    <linearGradient id="linear-gradient-25" x1="1.94" y1="43.24" x2="67.07" y2="43.24" xlink:href="#linear-gradient-5"/>
    <linearGradient id="linear-gradient-26" x1="9.93" y1="25.08" x2="38.71" y2="25.08" gradientUnits="userSpaceOnUse">
      <stop offset="0.26" stop-color="#8901b8"/>
      <stop offset="1" stop-color="#a001d4"/>
    </linearGradient>
    <linearGradient id="linear-gradient-27" x1="9.93" y1="24.41" x2="38.71" y2="24.41" gradientUnits="userSpaceOnUse">
      <stop offset="0" stop-color="#bf01fe"/>
      <stop offset="1" stop-color="#bf01fe"/>
    </linearGradient>
    <linearGradient id="linear-gradient-28" x1="9.97" y1="24.2" x2="38.71" y2="24.2" gradientUnits="userSpaceOnUse">
      <stop offset="0" stop-color="#d845fe"/>
      <stop offset="0.5" stop-color="#df42fe"/>
      <stop offset="0.78" stop-color="#e88efe"/>
    </linearGradient>
    <linearGradient id="linear-gradient-29" x1="8.28" y1="27.5" x2="39.37" y2="27.5" xlink:href="#linear-gradient-27"/>
    <linearGradient id="linear-gradient-30" x1="8.28" y1="27.97" x2="39.37" y2="27.97" xlink:href="#linear-gradient-26"/>
    <linearGradient id="linear-gradient-31" x1="8.6" y1="26.88" x2="39.29" y2="26.88" xlink:href="#linear-gradient-28"/>
    <linearGradient id="linear-gradient-32" x1="9.58" y1="43.2" x2="38.01" y2="43.2" gradientUnits="userSpaceOnUse">
      <stop offset="0" stop-color="#6f0194"/>
      <stop offset="0.43" stop-color="#ad01e7"/>
      <stop offset="1" stop-color="#ad01e7"/>
    </linearGradient>
    <linearGradient id="linear-gradient-33" x1="9.58" y1="29.21" x2="38.01" y2="29.21" gradientUnits="userSpaceOnUse">
      <stop offset="0" stop-color="#630184"/>
      <stop offset="0.43" stop-color="#9f01d3"/>
      <stop offset="1" stop-color="#9f01d3"/>
    </linearGradient>
    <linearGradient id="linear-gradient-34" x1="9.74" y1="43.17" x2="37.82" y2="43.17" gradientUnits="userSpaceOnUse">
      <stop offset="0" stop-color="#8901b7"/>
      <stop offset="0.44" stop-color="#bf01fe"/>
      <stop offset="1" stop-color="#d01cfe"/>
    </linearGradient>
    <linearGradient id="linear-gradient-35" x1="9.73" y1="29.23" x2="37.81" y2="29.23" gradientUnits="userSpaceOnUse">
      <stop offset="0" stop-color="#69018b"/>
      <stop offset="0.44" stop-color="#ad01e7"/>
      <stop offset="1" stop-color="#be01eb"/>
    </linearGradient>
    <linearGradient id="linear-gradient-36" x1="34.48" y1="1.7" x2="34.48" y2="26.81" gradientUnits="userSpaceOnUse">
      <stop offset="0.21" stop-color="#f175fe"/>
      <stop offset="0.67" stop-color="#d201fe"/>
      <stop offset="1" stop-color="#9501c1"/>
    </linearGradient>
    <linearGradient id="linear-gradient-37" x1="232.03" y1="-921.91" x2="256.74" y2="-921.91" gradientTransform="translate(-886.83 -230.16) rotate(90)" gradientUnits="userSpaceOnUse">
      <stop offset="0.21" stop-color="#ed3dfe"/>
      <stop offset="0.67" stop-color="#a901e3"/>
      <stop offset="1" stop-color="#7c01b0"/>
    </linearGradient>
    <linearGradient id="linear-gradient-38" x1="-731.37" y1="-1224.16" x2="-673.87" y2="-1224.16" gradientTransform="translate(-668.14 -1214.99) rotate(180)" gradientUnits="userSpaceOnUse">
      <stop offset="0" stop-color="#580174"/>
      <stop offset="0.2" stop-color="#c315fe"/>
      <stop offset="0.4" stop-color="#a801df"/>
      <stop offset="0.7" stop-color="#f36dfe"/>
      <stop offset="1" stop-color="#c92afe"/>
    </linearGradient>
    <linearGradient id="linear-gradient-39" x1="-731.06" y1="-1205.62" x2="-674.18" y2="-1205.62" gradientTransform="translate(-668.14 -1195.44) rotate(180)" gradientUnits="userSpaceOnUse">
      <stop offset="0"/>
      <stop offset="0.2" stop-color="#bd01fc"/>
      <stop offset="0.4" stop-color="#8f01be"/>
      <stop offset="0.7" stop-color="#bf03fe"/>
      <stop offset="1" stop-color="#bd01fc"/>
    </linearGradient>
  </defs>
  <g id="static">
    <ellipse cx="34.48" cy="70.23" rx="31.28" ry="18.14" fill="url(#linear-gradient)"/>
    <ellipse cx="34.48" cy="69.61" rx="31.21" ry="18.14" fill="url(#linear-gradient-2)"/>
    <path d="M34.48,50.64c-16.86,0-26.45,8.7-29.8,18.14-1.59,4.47,2,9.11,9.15,13.19,5.38,3.08,12,5.06,20.65,5.06s15.27-2,20.65-5.06c7.12-4.08,10.74-8.72,9.15-13.19C60.93,59.34,51.34,50.64,34.48,50.64Z" fill="url(#linear-gradient-3)"/>
    <path d="M67.21,19.49S64.7,65.06,64.63,68.15s-.21,5.37-2.33,7.95S51.21,86.77,34.48,86.77,8.78,78.68,6.66,76.1,4.4,71.25,4.33,68.15,1.75,19.49,1.75,19.49Z" fill="url(#linear-gradient-4)"/>
    <path d="M1.75,19.49,2,24.68c6.48,4.75,19,7.83,32.44,7.53,16-.36,28.24-4.77,32.62-10.84l.1-1.87Z" fill="url(#linear-gradient-5)"/>
    <ellipse cx="34.48" cy="15.49" rx="34.38" ry="15.49" fill="url(#linear-gradient-6)"/>
    <path d="M34.48,30.35C15.64,30.35.34,23.63.11,15.29c0,.07,0,.13,0,.2C.1,24,15.49,31,34.48,31S68.86,24,68.86,15.49c0-.07,0-.13,0-.2C68.62,23.63,53.32,30.35,34.48,30.35Z" fill="url(#linear-gradient-7)"/>
    <path d="M34.48.21C55,.21,67.83,8.34,67.83,14.5c0,8-14.82,14.71-33.34,14.71S1.14,22.52,1.14,14.5C1.14,8.34,14,.21,34.48.21Z" fill="url(#linear-gradient-8)"/>
    <path d="M34.48,1.64C17,1.64,3,7.56,3,15.84c0,5,5.52,9.09,13.53,11.56a67.44,67.44,0,0,0,17.94,2.3,67.44,67.44,0,0,0,17.94-2.3C60.43,24.92,66,20.8,66,15.84,66,7.56,51.93,1.64,34.48,1.64ZM52.16,27a66.83,66.83,0,0,1-17.67,2.25A66.84,66.84,0,0,1,16.81,27C8.91,24.54,3.48,20.5,3.48,15.64c0-8.11,13.82-13.9,31-13.9s31,5.79,31,13.9C65.49,20.5,60,24.54,52.16,27Z" fill="url(#linear-gradient-9)"/>
    <path d="M2.37,15.85c0-7.09,11.21-14.39,32.11-14.39s32.11,7.3,32.11,14.39a7.9,7.9,0,0,1-1.41,4.38,8.3,8.3,0,0,0,2.65-5.72C67.83,8.34,55,.21,34.48.21S1.14,8.34,1.14,14.5a8.3,8.3,0,0,0,2.65,5.72A7.9,7.9,0,0,1,2.37,15.85Z" fill="url(#linear-gradient-10)"/>
    <path d="M34.48,1.75c-17.19,0-31,5.79-31,13.9,0,4.86,5.44,8.9,13.33,11.32a66.84,66.84,0,0,0,17.67,2.25A66.83,66.83,0,0,0,52.16,27C60,24.54,65.49,20.5,65.49,15.64,65.49,7.54,51.67,1.75,34.48,1.75Z" fill="url(#linear-gradient-11)"/>
    <path d="M3.75,16.45c0-7.82,13.69-13.4,30.73-13.4s30.73,5.58,30.73,13.4a6.18,6.18,0,0,1-.29,1.86,6.68,6.68,0,0,0,.57-2.67c0-8.11-13.82-13.9-31-13.9s-31,5.79-31,13.9A6.68,6.68,0,0,0,4,18.31,6.14,6.14,0,0,1,3.75,16.45Z" fill="url(#linear-gradient-12)"/>
    <path d="M64.16,14.5c0-5.56-11.46-12.9-29.68-12.9S4.8,8.94,4.8,14.5c0,.12,0,1.1,0,1.46,0,7.16,13.14,13.15,29.72,13.15S64.2,23.12,64.2,16C64.2,15.6,64.16,14.62,64.16,14.5Z" fill="url(#linear-gradient-13)"/>
    <path d="M34.48,1.6c18.22,0,29.68,7.34,29.68,12.9,0,7.23-13.19,13.27-29.68,13.27S4.8,21.73,4.8,14.5C4.8,8.94,16.26,1.6,34.48,1.6Z" fill="url(#linear-gradient-14)"/>
    <path d="M34.48.05C13.72.05.67,8.38.67,14.68c0,8.2,15,15.05,33.81,15.05s33.81-6.86,33.81-15.05C68.29,8.38,55.24.05,34.48.05Zm0,29.16C16,29.22,1.14,22.52,1.14,14.5,1.14,8.34,14,.21,34.48.21S67.83,8.34,67.83,14.5C67.83,22.52,53,29.22,34.48,29.22Z" fill="url(#linear-gradient-15)"/>
    <path d="M34.48,1.7c-18,0-29.27,7.41-29.27,12.86,0,6.78,12.95,12.8,29.27,12.8s29.27-6,29.27-12.8C63.75,9.11,52.52,1.7,34.48,1.7Zm0,25.1c-16,0-28.75-5.85-28.75-12.44,0-5.29,11-12.5,28.75-12.5s28.75,7.2,28.75,12.5C63.23,21,50.52,26.81,34.48,26.81Z" fill="url(#linear-gradient-16)"/>
    <path d="M52.07,44.45c-.79.93-6.83,9.89-10.27,14.37s-8.35,9.33-12.08,11.74a27.3,27.3,0,0,1-14.66,4.51A16.58,16.58,0,0,1,4.55,71.4a9,9,0,0,0,1.4,3.73A19,19,0,0,0,15.05,77c5.58,0,10.38-2,15.26-5a48.57,48.57,0,0,0,12.6-12.07c2.92-4,6.54-9,8.68-12.22l1.09.92a6.07,6.07,0,0,0,2.79-1.87s1.35-1.72.07-3S52.86,43.53,52.07,44.45Z" fill="url(#linear-gradient-17)"/>
    <path d="M54.67,45.68a1,1,0,0,1-.29-.09c-.17-.07-.39-.36-.45-.4l0,0c-.26.34-.56.77-.91,1.29l0,0,.06.06a3.53,3.53,0,0,0,1.12.44A2.61,2.61,0,0,0,55,47,2.56,2.56,0,0,0,54.67,45.68Z" fill="url(#linear-gradient-18)"/>
    <path d="M53.93,45.2l0,0c-.26.34-.56.77-.91,1.29l0,0,.06.06c.19.13.55-.08.8-.45S54.13,45.33,53.93,45.2Z" fill="url(#linear-gradient-19)"/>
    <path d="M53.34,46h0Zm1.54.14-.27,0A1.63,1.63,0,0,1,54,45.8a1.5,1.5,0,0,1-.16.31,1.46,1.46,0,0,1-.26.3,3.28,3.28,0,0,0,1.46.31A2.47,2.47,0,0,0,54.88,46.11Z" fill="#fff"/>
    <path d="M2.69,36.56l.2,3.61A32.73,32.73,0,0,0,1.31,50.6c0,3.68,1.27,10.84,4.3,14.93A16.27,16.27,0,0,0,19,72.32a25.67,25.67,0,0,0,13.66-4.58A52.12,52.12,0,0,0,43.88,56.83c3.2-4.16,8.83-12.49,9.57-13.35s2-1.79,3.24-.64-.07,2.75-.07,2.75a3.88,3.88,0,0,0-.53-1.06,5.83,5.83,0,0,0-.68-.77S55,43.48,53,46.47s-5.37,7.61-8.09,11.36A45.21,45.21,0,0,1,33.17,69c-4.54,2.79-9,4.68-14.21,4.68S9.29,72.15,4.82,66.54,0,53,0,50.43A38.2,38.2,0,0,1,2.69,36.56Z" fill="url(#linear-gradient-20)"/>
    <path d="M55,43.45A11.87,11.87,0,0,0,52.81,46c-2,2.94-5.35,7.58-8.05,11.31A46,46,0,0,1,33,68.7c-4.52,2.78-8.89,4.47-14.07,4.47S9.29,71.6,4.83,66,0,52.5,0,50c0-.81,0-1.61.08-2.38C0,48.5,0,49.45,0,50.43c0,2.55.34,10.5,4.82,16.1S13.76,73.73,19,73.73,28.63,71.84,33.17,69A45.21,45.21,0,0,0,44.91,57.83C47.63,54.08,51,49.47,53,46.47s2.4-2.72,2.4-2.72a5.83,5.83,0,0,1,.68.77,3.67,3.67,0,0,1,.26.42C57,44,56.12,42.61,55,43.45Z" fill="url(#linear-gradient-21)"/>
    <path d="M56.08,43.91a.61.61,0,0,0-.68-.16,5.83,5.83,0,0,1,.68.77C56.13,44.6,56.31,44.19,56.08,43.91Z" fill="#475460"/>
    <path d="M2.47,40.18A32.73,32.73,0,0,0,.89,50.6c0,3.68,1.27,10.84,4.3,14.93a16.28,16.28,0,0,0,13.22,6.78A16.31,16.31,0,0,1,5.61,65.54c-3-4.09-4.3-11.25-4.3-14.93A32.73,32.73,0,0,1,2.88,40.18l-.05-1Z" fill="#364049"/>
    <path d="M56.68,42.84c-1.19-1.15-2.5-.22-3.24.64s-6.37,9.19-9.57,13.35A52.12,52.12,0,0,1,32.62,67.74,25.67,25.67,0,0,1,19,72.32a15.66,15.66,0,0,1-2.15-.11,15.32,15.32,0,0,0,2.91.22,26.06,26.06,0,0,0,13.46-4.54A51.51,51.51,0,0,0,44.27,57.08c3.15-4.13,8.7-12.39,9.43-13.24,1.59-1.86,2.91-1.35,3.36-.43A1.71,1.71,0,0,0,56.68,42.84Z" fill="url(#linear-gradient-22)"/>
    <path d="M56.91,45.24a1.42,1.42,0,0,0-.82-1.36,3,3,0,0,0-.46-.07,1.64,1.64,0,0,0-1.47,1.65,1.43,1.43,0,0,0,1.28,1.65,3.82,3.82,0,0,0,.48-.07,1.64,1.64,0,0,0,1-1.58c0-.06,0-.11,0-.16Z" fill="url(#linear-gradient-23)"/>
    <path d="M56.91,45.45c0,.89-.57,1.61-1.19,1.61s-1.09-.72-1-1.61.57-1.61,1.19-1.61S56.95,44.57,56.91,45.45Z" fill="url(#linear-gradient-24)"/>
    <path d="M54.87,45.45A1.57,1.57,0,0,1,56,43.85h-.1c-.62,0-1.15.72-1.19,1.61s.43,1.61,1,1.61h.1C55.25,47,54.83,46.3,54.87,45.45Z" fill="#fff"/>
    <path d="M34.48,31c-9.8,0-18.64-1.85-24.9-4.81a10.3,10.3,0,0,0,0,2.6c.16.71,1.12,1.69,1.7,1.12.26,1-.54,2.42.23,3.39.55-.36,0-1.23.43-1.58s.42,1.15.48,1.51a13.9,13.9,0,0,1,.33,1.9c0,.56-.22,1.16-.27,1.74a44.54,44.54,0,0,0,.08,5,9.29,9.29,0,0,0,.12,2.48c.35.73.78-.13.95-.61.6,1-.36,2.42.46,2.42s.55-4.6.46-5.69c0-.41-.48-2.22-.12-2.52.52-.42.31,1.72.83,1.72s.18-1,.35-1.42.28-1.1.53-1.1.31,4.62.42,5.38c.31,2.25.08,4.59.19,6.89s-.11,4.6,0,6.89c0,.72-.17,5.12,1,3.82.81-.89.21-3.81,0-4.93-.38-1.87.24-3.76,0-5.63a20,20,0,0,1-.36-5.15c.1-.8.31-1.57.42-2.38a3.52,3.52,0,0,1,.91-2.14,1.17,1.17,0,0,0,.21-.37c.14,2,1.07-.59,1.59,0,.31.34-.46,2.94.07,2.94s.24-.2.45-.39a3.37,3.37,0,0,1,.19,2.05,5.84,5.84,0,0,0-.12,2.39,8.31,8.31,0,0,1,.2,2.18c0,.55.1,2.09.6,2.09s.15-1.36.38-2.06c.4,1.61.55,3.34.9,5s-.7,4.75.2,4.75.25-5.24.25-7.6c0-1.8.33-3.59.33-5.39s-.38-3.38-.4-5.09c0-1.35,1.88-3.56,2.67-3.56s.49-1.24,1-1.44c.73-.25,1.09,1,1.07,1.7s-.27,5.78.41,5.55c.93-.32.18-3.69.7-4.48.26-.4,1.26.89,1.21,1.44s.07,1.11,0,1.65a3.73,3.73,0,0,0-.17,1.76,4.77,4.77,0,0,1,.37,1.9,16.15,16.15,0,0,0-.17,2.28c0,1,.09,1.94,0,2.95a9.43,9.43,0,0,0,.15,3.39c.54,1.18.89-.54.93-1.25s-.06-1.67-.1-2.52c0-.46.16-4.33.48-4.33s-.08,2.36.55,2.36-.11-9.25,0-9.69c.35-1.39.64,1.1,1.33,1.1s.66-1.16.93-1.8c.19.18.24.38.65.38s.18-1.53.53-2.13c.49-.84.7-.1.68.57,0,.87-.3,1.79-.33,2.67,0,1.14-.27,3.4.46,3.4s-.08-2.68,0-3.57c.1-1.24.72-2.6.34-3.69.72.41.69-2.29.62-4.06Q36.21,31,34.48,31Z" fill="url(#linear-gradient-25)"/>
  </g>
  <g id="colored">
    <g id="group" opacity="1">
      <path id="c13" d="M38.71,29.1V26.67q-2.07.14-4.23.14c-10.17,0-19-2.35-24.1-5.75-.07,0-.33.06-.38.24a9.09,9.09,0,0,0,0,2.11l-.47.82c6.09,3,15,5,25,5Q36.63,29.22,38.71,29.1Z" fill="#bf01fe"/>
      <path id="c12" d="M10.38,21.06c-.07,0-.33.06-.38.24a8.86,8.86,0,0,0,0,2.1c5.33,3.43,14.26,5.72,24.49,5.72q2.16,0,4.23-.13V26.67q-2.07.14-4.23.14C24.31,26.81,15.48,24.46,10.38,21.06Z" fill="url(#linear-gradient-26)"/>
      <path id="c11" d="M10.38,21.06c-.07,0-.33.06-.38.24a3,3,0,0,0-.07.64c5.32,3.5,14.3,5.84,24.55,5.84q2.16,0,4.23-.14v-1q-2.07.14-4.23.14C24.31,26.81,15.48,24.46,10.38,21.06Z" fill="url(#linear-gradient-27)"/>
      <path id="c10" d="M38.71,27.22v-.55A62.15,62.15,0,0,1,24,25.93a47.18,47.18,0,0,1-7-1.74,28.84,28.84,0,0,1-6.37-3c-.12-.07-.27-.24-.41-.19a.42.42,0,0,0-.29.4,32.17,32.17,0,0,0,10,4.18,58.21,58.21,0,0,0,13.69,1.72q2.53,0,5.06-.13Z" fill="url(#linear-gradient-28)"/>
      <path id="c9" d="M39.35,29.92c-.08-.68-.29-.85-.29-.85q-2.24.14-4.58.14c-10.21,0-19.28-2-25.38-5.2,0,0-.36,0-.7.63a1,1,0,0,0,0,.91C14.69,28.88,24,31,34.48,31q2.42,0,4.76-.15A1.32,1.32,0,0,0,39.35,29.92Z" fill="url(#linear-gradient-29)"/>
      <path id="c8" d="M35.88,31q1.68,0,3.37-.13a1.08,1.08,0,0,0,.12-.62,75.83,75.83,0,0,1-14.87-.5,55.65,55.65,0,0,1-12.38-3A35.79,35.79,0,0,1,8.29,25a1,1,0,0,0,.1.59A46.74,46.74,0,0,0,22.19,30a72.71,72.71,0,0,0,13.69,1Z" fill="url(#linear-gradient-30)"/>
      <path id="c7" d="M39.29,29.58a.91.91,0,0,0-.23-.5,73.23,73.23,0,0,1-14.87-.58,49.62,49.62,0,0,1-13.83-3.86Q9.72,24.34,9.1,24s-.23,0-.5.32a43.19,43.19,0,0,0,11,3.84,68.83,68.83,0,0,0,14,1.54q2.86,0,5.72-.15Z" fill="url(#linear-gradient-31)"/>
      <path id="c6" d="M34.48,31c-9.76,0-18.57-1.83-24.83-4.78a10,10,0,0,0,0,2.47c.16.71,1.12,1.69,1.7,1.12.26,1-.54,2.42.23,3.39.55-.36,0-1.23.43-1.58s.42,1.15.48,1.51a13.9,13.9,0,0,1,.33,1.9c0,.56-.22,1.16-.27,1.74a44.39,44.39,0,0,0,.08,5,9.26,9.26,0,0,0,.12,2.48c.35.73.78-.13.95-.61.6,1-.36,2.42.46,2.42s.55-4.6.46-5.69c0-.41-.48-2.22-.12-2.52.52-.42.31,1.72.83,1.72s.18-1,.35-1.42S16,37,16.22,37s.32,4.62.42,5.38c.31,2.25.08,4.59.19,6.89s-.11,4.6,0,6.89c0,.72-.17,5.12,1,3.82.81-.89.21-3.81,0-4.93-.38-1.87.24-3.77,0-5.63a19.89,19.89,0,0,1-.36-5.15c.1-.8.31-1.57.42-2.38a3.52,3.52,0,0,1,.91-2.14,1.16,1.16,0,0,0,.21-.37c.14,2,1.07-.59,1.59,0,.31.34-.46,2.94.08,2.94s.24-.2.45-.4A3.37,3.37,0,0,1,21.26,44a5.82,5.82,0,0,0-.11,2.39,8.31,8.31,0,0,1,.2,2.18c0,.55.1,2.09.6,2.09s.15-1.36.38-2.06c.4,1.61.55,3.34.9,5s-.7,4.75.2,4.75.25-5.24.25-7.6c0-1.8.33-3.59.33-5.39s-.38-3.38-.4-5.09c0-1.35,1.88-3.56,2.67-3.56s.49-1.24,1.05-1.44c.73-.25,1.09,1,1.07,1.7s-.27,5.78.41,5.55c.93-.32.18-3.69.7-4.48.26-.4,1.26.89,1.21,1.44s.07,1.11,0,1.65a3.73,3.73,0,0,0-.17,1.76,4.77,4.77,0,0,1,.37,1.9A16.24,16.24,0,0,0,30.72,47c0,1,.09,1.94,0,2.95a9.42,9.42,0,0,0,.15,3.39c.54,1.18.89-.54.93-1.25s-.06-1.67-.1-2.52c0-.46.16-4.33.48-4.33s-.08,2.36.55,2.36-.11-9.25,0-9.69c.35-1.39.64,1.1,1.33,1.1s.66-1.16.93-1.8c.19.18.24.38.65.38s.18-1.53.53-2.13c.49-.84.7-.1.68.57,0,.87-.3,1.79-.33,2.67,0,1.14-.27,3.4.46,3.4s-.08-2.68,0-3.57c.1-1.24.72-2.6.34-3.69.71.4.69-2.2.63-4Q36.26,31,34.48,31Z" fill="url(#linear-gradient-32)"/>
      <path id="c5" d="M38,30.89q-1.73.08-3.5.08c-9.76,0-18.57-1.83-24.83-4.78a10.92,10.92,0,0,0,0,2.37,70.12,70.12,0,0,0,24.84,3.65q1.8,0,3.53-.15C38,31.66,38,31.26,38,30.89Z" fill="url(#linear-gradient-33)"/>
      <path id="c4" d="M34.48,31C24.77,31,16,29.16,9.75,26.24c0,.37-.07.86-.07,1.33a5.38,5.38,0,0,0,.08,1.07,1.81,1.81,0,0,0,1,1.19.48.48,0,0,0,.5-.12l.12-.12,0,.17a2.06,2.06,0,0,1,.06.51,6.46,6.46,0,0,1-.08.88,6.51,6.51,0,0,0-.08.89,1.69,1.69,0,0,0,.26,1,.69.69,0,0,0,.16-.5c0-.07,0-.13,0-.2s0-.14,0-.2a.74.74,0,0,1,.2-.59.19.19,0,0,1,.2,0c.2.07.3.52.42,1.36l0,.25.12.58A7.22,7.22,0,0,1,12.94,35a4.73,4.73,0,0,1-.14,1,6.19,6.19,0,0,0-.13.75,27.25,27.25,0,0,0,0,3.58l.06,1.38v.6a5.59,5.59,0,0,0,.12,1.83c0,.09.13.23.22.23s.39-.36.55-.82l.07-.21.11.19A2.48,2.48,0,0,1,14,45.15c0,.3-.08.58,0,.69a.25.25,0,0,0,.19.06.14.14,0,0,0,.11-.06c.51-.56.38-4,.25-5.53l-.07-.45c-.18-1-.31-1.9,0-2.15a.25.25,0,0,1,.26-.06c.19.07.24.38.32.87s.14.89.31.89a.16.16,0,0,0,.12,0c.1-.1.09-.39.08-.64a1.82,1.82,0,0,1,.05-.67l.11-.34c.13-.42.25-.82.51-.82s.27.28.41,3.63c0,.84.07,1.57.1,1.83a30.12,30.12,0,0,1,.16,4.27c0,.86,0,1.76,0,2.63.05,1.14,0,2.3,0,3.41s-.05,2.32,0,3.47v.53c0,.89,0,3.24.47,3.42.11,0,.26-.08.36-.2.77-.85.18-3.74,0-4.84a10.72,10.72,0,0,1,0-3,11.49,11.49,0,0,0,0-2.67,19.8,19.8,0,0,1-.36-5.16c.05-.41.13-.82.21-1.22l.2-1.16a3.63,3.63,0,0,1,.95-2.2.88.88,0,0,0,.16-.28l0-.06.19,0c0,.57.14.64.17.65s.31-.21.45-.36.46-.49.69-.49a.34.34,0,0,1,.25.12c.16.18.11.68,0,1.47a3.46,3.46,0,0,0,0,1.42h0c.25,0,.25,0,.26-.1a.4.4,0,0,1,.12-.27l.12-.11.05.18A3.42,3.42,0,0,1,21.36,44a5.69,5.69,0,0,0-.11,2.36l0,.23a7.48,7.48,0,0,1,.16,2,3.56,3.56,0,0,0,.36,1.9.19.19,0,0,0,.14.08.11.11,0,0,0,.08,0c.12-.12.11-.51.11-.88a3.58,3.58,0,0,1,.09-1.08l.11-.33.08.34c.22.9.37,1.85.51,2.78.11.73.23,1.49.38,2.21a9.17,9.17,0,0,1-.06,2.61c-.1.86-.2,1.75,0,2a.18.18,0,0,0,.15.06.13.13,0,0,0,.1-.05c.42-.44.27-3,.15-5-.05-.93-.1-1.81-.1-2.46,0-.91.08-1.82.17-2.71s.17-1.78.17-2.68a22.66,22.66,0,0,0-.2-2.6,23.83,23.83,0,0,1-.2-2.48A4.94,4.94,0,0,1,25,37.32c.28-.29.82-.77,1.23-.77s.43-.26.54-.68.17-.65.47-.75a.61.61,0,0,1,.58.09,2.35,2.35,0,0,1,.63,1.71v.34c-.14,4,.06,5,.26,5.1h0c.46-.16.45-1.34.43-2.38a4.59,4.59,0,0,1,.22-2.06.27.27,0,0,1,.34-.1,2.2,2.2,0,0,1,1,1.6,5.25,5.25,0,0,0,0,.73,4.49,4.49,0,0,1,0,.92l-.12.55a2.14,2.14,0,0,0-.06,1.17l.17.57a3,3,0,0,1,.2,1.36l-.07.62a10.28,10.28,0,0,0-.1,1.65v.38c0,.87.07,1.69,0,2.58l0,.53A7.28,7.28,0,0,0,31,53.32c.12.27.23.35.28.34.2,0,.43-.9.46-1.56a14.34,14.34,0,0,0,0-1.69l0-.82c0-.28.12-4,.47-4.39l.11-.05c.23,0,.24.37.25,1s0,1.37.27,1.37c.33-.26.1-4.88,0-7.1a24.45,24.45,0,0,1-.08-2.52c.09-.34.18-.48.31-.49s.3.24.47.63.4.9.65.9.5-.42.65-1.06a4.33,4.33,0,0,1,.2-.69L35,37l.22.24a.5.5,0,0,0,.47.23c.13,0,.16-.49.19-.85a3.24,3.24,0,0,1,.25-1.23c.07-.12.29-.49.54-.41s.33.88.33,1a10.45,10.45,0,0,1-.17,1.37,10.53,10.53,0,0,0-.17,1.3l0,.47c-.05,1-.13,2.39.22,2.75A.22.22,0,0,0,37,42a.13.13,0,0,0,.11,0c.21-.24.05-1.22-.07-2a7.49,7.49,0,0,1-.15-1.42,10.14,10.14,0,0,1,.23-1.33,4.39,4.39,0,0,0,.12-2.33l-.09-.25.23.13c.08,0,.12,0,.14,0,.29-.18.36-1.33.36-2.49,0-.49,0-1,0-1.4Q36.21,31,34.48,31Z" fill="url(#linear-gradient-34)"/>
      <path id="c3" d="M33.32,31a68.63,68.63,0,0,1-14.45-1.67,46.19,46.19,0,0,1-9.13-3,8,8,0,0,0,0,2.36,60.39,60.39,0,0,0,12.82,3,80.94,80.94,0,0,0,15,.5l.31,0c0-.41,0-.81,0-1.17q-2.28.1-4.56.07Z" fill="url(#linear-gradient-35)"/>
      <path id="c2" d="M34.48,1.88c-17.72,0-28.75,7.2-28.75,12.5,0,6.59,12.72,12.44,28.75,12.44S63.23,21,63.23,14.37C63.23,9.08,52.2,1.88,34.48,1.88Z" fill="url(#linear-gradient-36)"/>
      <path id="c1" d="M34.48,1.88c-14.33,0-24.28,4.71-27.57,9.31,4.39-3.4,13.17-6.38,25-6.38C49.24,4.8,60,11.23,60,15.95s-8.42,9.23-20.14,10.63c13.39-1.13,23.34-6.38,23.34-12.21C63.23,9.08,52.2,1.88,34.48,1.88Z" fill="url(#linear-gradient-37)"/>
      <path id="c0" d="M34.48,4.28c16.87,0,27.85,5.88,28.32,12.18a5.46,5.46,0,0,0,.43-2.09c0-5.29-11-12.5-28.75-12.5S5.73,9.08,5.73,14.37a5.46,5.46,0,0,0,.43,2.09C6.63,10.16,17.61,4.28,34.48,4.28Z" fill="url(#linear-gradient-38)"/>
      <path id="c14" d="M34.48,3.89C17.71,3.89,6.73,9.79,6,16.16l.12.31c.47-6.3,11.45-12.18,28.32-12.18S62.33,10.16,62.8,16.46l.12-.31C62.23,9.79,51.25,3.89,34.48,3.89Z" fill="url(#linear-gradient-39)"/>
    </g>
  </g>
</svg>
