<?xml version="1.0" encoding="utf-8"?>
<!-- Generator: Adobe Illustrator 22.1.0, SVG Export Plug-In . SVG Version: 6.00 Build 0)  -->
<svg version="1.1" id="Layer_1" xmlns="http://www.w3.org/2000/svg" xmlns:xlink="http://www.w3.org/1999/xlink" x="0px" y="0px"
	 viewBox="0 0 90 85" style="enable-background:new 0 0 90 85;" xml:space="preserve">
<path id="p1" d="M25.9,0.2c-3,0.5-6.1,2.8-7.5,5.8l-0.8,1.7L17.5,20l-0.1,12.5l-8.7,8.7C0.6,49.3,0,49.9,0,50.7
	c0,0.8,1,1.9,16.4,17.2c9,9,16.6,16.5,17,16.7c0.4,0.2,0.9,0.3,1.2,0.3c0.4,0,5.7-5.2,20.6-20l20.1-20l1.5-0.1
	c1.9-0.2,2.5-0.5,2.5-1.3c0-0.5-3-3.6-17.7-18.4C45.3,8.9,43.8,7.4,43.1,7.5l-0.7,0.1l-0.1,10l0,10l0.8,1.4c0.9,1.6,1.2,2.8,1.1,5.1
	c-0.2,2.8-1.8,5.2-4.5,6.5c-1.5,0.7-1.8,0.8-3.7,0.8c-2.5,0-3.8-0.5-5.5-2.1c-2.9-2.7-3.5-7.1-1.4-10.4l0.8-1.3l0-3.8V20l-4.1,4.1
	l-4.1,4.1v-9.7c0-10.9,0-10.8,1.8-12.6c1.3-1.2,2.6-1.7,4.4-1.7c2.7,0,5,1.7,5.8,4.2c0.3,1,0.4,2.6,0.4,11.1v9.8l-0.9,1
	c-1.2,1.3-1.5,2.7-0.9,4.2c1.7,4.3,7.9,3.1,7.9-1.5c0-1.3-0.4-2.2-1.3-3.1l-0.6-0.6v-10c0-8.1-0.1-10.3-0.4-11.6
	C36.5,2.7,31.3-0.8,25.9,0.2z"/>
<path id="p0" d="M78.5,51.5c-1,0.8-6.2,9.4-7.6,12.7c-1.9,4.5-2,7.1-0.3,10.3c4,7.6,14.9,7.3,18.5-0.4c1-2.2,1.2-4.9,0.4-7.3
	c-0.9-3.1-6.5-13.1-8.3-15C80.5,51.2,79.2,51,78.5,51.5z"/>
</svg>
