<svg id="Layer_1" data-name="Layer 1" xmlns="http://www.w3.org/2000/svg" viewBox="0 0 91.5 157.4">
    <g id="g7">
        <path id="p7" d="M41.6,141.5v10.8s-13.2-1.3-13.4,3,17.3.7,17.3.7,17.5,3.7,17.3-.7-13.3-3-13.3-3V141.6a24.2,24.2,0,0,1-3.8.2A29.34,29.34,0,0,1,41.6,141.5Z" style="fill:#ffba00" />
        <text transform="translate(37 152.27)" style="isolation:isolate;font-size:8px;font-family:ArialMT, Arial">7</text>
    </g>
    <g id="g6">
        <path id="p6" d="M17.3,99.3a42.21,42.21,0,0,0-8.9,11.6c-5.9,11.5-6.9,24,3.9,18.2,0,0,.9,9.3,8.5,4.6a6,6,0,0,0,1.9-2.3A30.85,30.85,0,0,1,17.3,99.3Z" style="fill:#ab6609" />
        <text transform="translate(4 123.27)" style="isolation:isolate;font-size:8px;font-family:ArialMT, Arial">6</text>
    </g>
    <g id="g5">
        <path id="p5" d="M74.2,99.3a30.82,30.82,0,0,1-5.4,32.2,6,6,0,0,0,1.9,2.3c7.6,4.7,8.5-4.6,8.5-4.6C90,135,89,122.4,83.1,111A41.23,41.23,0,0,0,74.2,99.3Z" style="fill:#ab6609" />
        <text transform="translate(73.25 126.52)" style="isolation:isolate;font-size:8px;font-family:ArialMT, Arial">5</text>
    </g>
    <g id="g4">
        <path id="p4" d="M74.2,99.3c-.5-1.3-1.2-2.5-1.8-3.7h0a31,31,0,0,1,2.1,4.5l-3,1.8c-1,.6-2.3,1-3.5,1.6l-.9,1.8c-2.1,3.7-7.3,8.5-21,8.5s-19.2-4.8-21.2-8.5c-.5-.9-.9-1.9-1.3-2.8-2-.8-4.1-1.7-6.2-2.6a31.07,31.07,0,0,1,2-4.1h0c-.7,1.2-1.3,2.4-1.9,3.7a30.79,30.79,0,0,0,16.7,40.2A31.27,31.27,0,0,0,45.9,142c1.3,0,2.5-.1,3.8-.2a30.76,30.76,0,0,0,26.7-34.4A40.07,40.07,0,0,0,74.2,99.3Z" style="fill:#c6772b" />
        <text transform="translate(39.5 128.77)" style="isolation:isolate;font-size:8px;font-family:ArialMT, Arial">4</text>
    </g>
    <g id="g3">
        <path id="p3" d="M22.4,97.7c-.5-7,3.8-11.7,1.8-14-4-4.7-11.5-5.8-10.4-10.4s19-1,22.8-2.5,5.2-9.3,9-9.5h.2c3.8.2,5.2,8.1,9,9.5s21.8-2.1,22.8,2.5S71.3,79,67.3,83.6c-2,2.3,2.4,7,2,13.9,1-.6,2-1.3,3-2h0A45.69,45.69,0,0,0,48.7,12.7c1-2.2,2.4-4.2,3.6-6.3.4-.7-.1-1.9-1.1-1.6a10,10,0,0,0-3.8,2.3A49.45,49.45,0,0,1,50.9.7a.38.38,0,0,0-.4-.6c-5.4,1.6-7.9,7.1-8.7,12.7A45.74,45.74,0,0,0,19.2,95.6h0C20.2,96.3,21.3,97,22.4,97.7ZM62.7,55.1a6.05,6.05,0,1,1-6,6.1v-.1A6,6,0,0,1,62.7,55.1Zm-34,0a6.05,6.05,0,1,1-.1,12.1,6,6,0,0,1-6-6.1h0a6,6,0,0,1,6.1-6Z" style="fill:#6cb38a" />
        <text transform="translate(31 35.27)" style="isolation:isolate;font-size:8px;font-family:ArialMT, Arial">1</text>
    </g>
    <g id="g2">
        <path id="p2" d="M69.3,97.6c.4-6.9-4-11.6-2-13.9,4-4.7,11.5-5.8,10.4-10.4s-19-1-22.8-2.5-5.2-9.3-9-9.5h-.2c-3.8.2-5.2,8.1-9,9.5s-21.8-2.1-22.9,2.5,6.4,5.8,10.4,10.4c2,2.3-2.3,7-1.8,14a14.58,14.58,0,0,0,1,4.6,23.94,23.94,0,0,0,1.3,2.8c2.1,3.7,7.6,8.5,21.3,8.5s18.9-4.8,21-8.5l.9-1.8A16.45,16.45,0,0,0,69.3,97.6ZM31.7,87.1c3.3,3.8.7,6-.6,5C29.1,90.5,31.7,87.1,31.7,87.1Zm27.9,0s2.6,3.4.6,5C58.9,93.1,56.3,90.9,59.6,87.1Z" style="fill:#ffba00" />
        <text transform="translate(41.75 102.02)" style="isolation:isolate;font-size:8px;font-family:ArialMT, Arial">2</text>
    </g>
    <g id="g1">
        <path id="p1" d="M31.1,92.1c1.3,1,3.9-1.2.6-5C31.7,87.1,29.1,90.5,31.1,92.1Z" style="fill:#c6772b" />
        <text transform="translate(57.75 93.52)" style="isolation:isolate;font-size:8px;font-family:ArialMT, Arial">3</text>
    </g>
    <g id="g0">
        <path id="p0" d="M60.2,92.1c2-1.6-.6-5-.6-5C56.3,90.9,58.9,93.1,60.2,92.1Z" style="fill:#c6772b" />
        <text transform="translate(27.5 90.52)" style="isolation:isolate;font-size:8px;font-family:ArialMT, Arial">8</text>
    </g>
    <g id="inactiveLayer">
        <path id="inactive" d="M28.6,67.2a6,6,0,1,0-6.1-6,5.93,5.93,0,0,0,5.9,6Zm0-8.7A2.72,2.72,0,0,1,31.3,61a2.64,2.64,0,0,0-1.9-.7,3.21,3.21,0,0,0-3.1,2.2,3.26,3.26,0,0,1-.4-1.3,2.69,2.69,0,0,1,2.7-2.7Z" style="fill:#fff" />
        <path id="inactive-2" d="M29.4,60.3a2.64,2.64,0,0,1,1.9.7,2.7,2.7,0,1,0-5.4.2,2,2,0,0,0,.4,1.3A3.34,3.34,0,0,1,29.4,60.3Z" style="fill:#353a42" />
        <path id="inactive-3" d="M62.7,67.2a6,6,0,1,0-6-6,5.89,5.89,0,0,0,6,6Zm0-8.7a2.69,2.69,0,0,1,2.7,2.7h0a2.77,2.77,0,0,1-.3,1.3A3.34,3.34,0,0,0,62,60.3a2.64,2.64,0,0,0-1.9.7A2.5,2.5,0,0,1,62.7,58.5Z" style="fill:#fff" />
        <path id="inactive-4" d="M65,62.5a2.08,2.08,0,0,0,.3-1.3,2.7,2.7,0,0,0-2.9-2.5A2.77,2.77,0,0,0,59.9,61a2.64,2.64,0,0,1,1.9-.7A3.38,3.38,0,0,1,65,62.5Z" style="fill:#353a42" />
    </g>
</svg>